{"title":"The Rock*1996*[BluRay][1080p][ENG, POL, MultiSub]","uid":5868715,"size":8842996607,"categoryP":"video","categoryS":"hd___movies","magnet":"?xt=urn:btih:8c33b5fe01269821ba1df294604aa49e164a38b9&amp;dn=The+Rock%2A1996%2A%5BBluRay%5D%5B1080p%5D%5BENG%2C+POL%2C+MultiSub%5D&amp;tr=udp%3A%2F%2Ftracker.openbittorrent.com%3A80&amp;tr=udp%3A%2F%2Fopen.demonii.com%3A1337&amp;tr=udp%3A%2F%2Ftracker.coppersurfer.tk%3A6969&amp;tr=udp%3A%2F%2Fexodus.desync.com%3A6969","seeders":0,"leechers":1,"uploader":"albedo040","files":1,"time":1286309658,"description":"The Rock*1996*[BluRay][1080p][ENG, POL, MultiSub]\n\nGeneral information:\nCountry: USA\nRelease: 7 June 1996\nGenre: Action, Adventure, Thriller \nDirector: Michael Bay\nScreenplay: David Weisberg, Douglas Cook, Mark Rosner\nOriginal Music: Nick Glennie-Smith, Hans Zimmer \nCinematography by: John Schwartzman\nDuration: 2h 16mn\nLanguage: English Polish\nSubtitles: English, Polish, Czech, Danish, Dutch, Estonian, Finnish, French, German, Hungarian, Norwegian, Portuguese, Serbian, Spanish, Swedish \nRating: 7.8/10 - 23608 votes \n\nCast:\nSean Connery  ...  John Patrick Mason  \nNicolas Cage  ...  Dr. Stanley Goodspeed  \nEd Harris  ...  Brigadier General Francis X. Hummel, USMC  \nJohn Spencer  ...  FBI Director James Womack  \nDavid Morse  ...  Major Tom Baxter  \nWilliam Forsythe  ...  Special Agent Ernest Paxton  \nMichael Biehn  ...  Commander Anderson  \nVanessa Marcil  ...  Carla Pestalozzi  \nJohn C. McGinley  ...  Marine Captain Hendrix (as John C. Mc Ginley)  \nGregory Sporleder  ...  Captain Frye  \nTony Todd  ...  Captain Darrow  \nBokeem Woodbine  ...  Sergeant Crisp  \nJim Maniaci  ...  Private Scarpetti  \nGreg Collins  ...  Private Gamble  \nBrendan Kelly  ...  Private Cox  \n\nPlot:\nA renegade general and his group of U.S. Marines take over Alcatraz and threaten San Francisco Bay with biological weapons. A chemical weapons specialist and the only man to have ever escaped from the Rock attempt to prevent chaos.\n\nSpecifications:\nGeneral\nFormat                           : Matroska\nOverall bit rate                 : 8 638 Kbps\n\nVideo\nFormat                           : AVC\nFormat/Info                      : Advanced Video Codec\nFormat profile                   : &lt;a class=&quot;__cf_email__&quot; href=&quot;/cdn-cgi/l/email-protection&quot; data-cfemail=&quot;074f6e606f474b332936&quot;&gt;[email&amp;#160;protected]&lt;/a&gt;&lt;script cf-hash='f9e31' type=&quot;text/javascript&quot;&gt;\n/* &lt;![CDATA[ */!function(){try{var t=&quot;currentScript&quot;in document?document.currentScript:function(){for(var t=document.getElementsByTagName(&quot;script&quot;),e=t.length;e--;)if(t[e].getAttribute(&quot;cf-hash&quot;))return t[e]}();if(t&amp;&amp;t.previousSibling){var e,r,n,i,c=t.previousSibling,a=c.getAttribute(&quot;data-cfemail&quot;);if(a){for(e=&quot;&quot;,r=parseInt(a.substr(0,2),16),n=2;a.length-n;n+=2)i=parseInt(a.substr(n,2),16)^r,e+=String.fromCharCode(i);e=document.createTextNode(e),c.parentNode.replaceChild(e,c)}}}catch(u){}}();/* ]]&gt; */&lt;/script&gt;\nFormat settings, CABAC           : Yes\nFormat settings, ReFrames        : 3 frames\nMuxing mode                      : Container profile=&lt;a class=&quot;__cf_email__&quot; href=&quot;/cdn-cgi/l/email-protection&quot; data-cfemail=&quot;4a1f242124253d240a7e647b&quot;&gt;[email&amp;#160;protected]&lt;/a&gt;&lt;script cf-hash='f9e31' type=&quot;text/javascript&quot;&gt;\n/* &lt;![CDATA[ */!function(){try{var t=&quot;currentScript&quot;in document?document.currentScript:function(){for(var t=document.getElementsByTagName(&quot;script&quot;),e=t.length;e--;)if(t[e].getAttribute(&quot;cf-hash&quot;))return t[e]}();if(t&amp;&amp;t.previousSibling){var e,r,n,i,c=t.previousSibling,a=c.getAttribute(&quot;data-cfemail&quot;);if(a){for(e=&quot;&quot;,r=parseInt(a.substr(0,2),16),n=2;a.length-n;n+=2)i=parseInt(a.substr(n,2),16)^r,e+=String.fromCharCode(i);e=document.createTextNode(e),c.parentNode.replaceChild(e,c)}}}catch(u){}}();/* ]]&gt; */&lt;/script&gt;\nCodec ID                         : V_MPEG4/ISO/AVC\nBit rate                         : 6 727 Kbps\nWidth                            : 1 920 pixels\nHeight                           : 1 080 pixels\nDisplay aspect ratio             : 16:9\nFrame rate                       : 23.976 fps\n\nAudio 1\nFormat                           : DTS\nFormat/Info                      : Digital Theater Systems\nCodec ID                         : A_DTS\nBit rate mode                    : Constant\nBit rate                         : 1 510 Kbps\nChannel(s)                       : 6 channels\nChannel positions                : Front: L C R, Side: L R, LFE\nSampling rate                    : 48.0 KHz\nBit depth                        : 16 bits\nStream size                      : 1.44 GiB (17%)\nTitle                            : English_A\n\nAudio 2\nFormat                           : AC-3\nFormat/Info                      : Audio Coding 3\nMode extension                   : CM (complete main)\nCodec ID                         : A_AC3\nBit rate mode                    : Constant\nBit rate                         : 448 Kbps\nChannel(s)                       : 6 channels\nChannel positions                : Front: L C R, Side: L R, LFE\nSampling rate                    : 48.0 KHz\nStream size                      : 437 MiB (5%)\nTitle                            : Polish_A\n\nText \nFormat                           : UTF-8\nCodec ID                         : S_TEXT/UTF8\nCodec ID/Info                    : UTF-8 Plain Text\n","torrent":{"xt":"urn:btih:8c33b5fe01269821ba1df294604aa49e164a38b9","amp;dn":"The+Rock%2A1996%2A%5BBluRay%5D%5B1080p%5D%5BENG%2C+POL%2C+MultiSub%5D","amp;tr":["udp%3A%2F%2Ftracker.openbittorrent.com%3A80","udp%3A%2F%2Fopen.demonii.com%3A1337","udp%3A%2F%2Ftracker.coppersurfer.tk%3A6969","udp%3A%2F%2Fexodus.desync.com%3A6969"],"infoHash":"8c33b5fe01269821ba1df294604aa49e164a38b9","infoHashBuffer":{"type":"Buffer","data":[140,51,181,254,1,38,152,33,186,29,242,148,96,74,164,158,22,74,56,185]},"announce":[],"urlList":[]}}